<svg width="180" height="45" viewBox="0 0 180 45" fill="none" xmlns="http://www.w3.org/2000/svg">
<mask id="mask0_2017_4" style="mask-type:alpha" maskUnits="userSpaceOnUse" x="0" y="0" width="42" height="45">
<path fill-rule="evenodd" clip-rule="evenodd" d="M16.6415 1.13723C19.3199 -0.379076 22.6198 -0.379076 25.2982 1.13723L37.6114 8.10801C40.2898 9.62432 41.9398 12.4266 41.9398 15.4592V29.4007C41.9398 32.4333 40.2898 35.2356 37.6114 36.7519L25.2982 43.7227C22.6198 45.239 19.3199 45.239 16.6415 43.7227L12.8465 41.5742C11.8528 41.0116 11.5123 39.7657 12.086 38.7913C12.6597 37.8169 13.9304 37.4831 14.9241 38.0457L18.7191 40.1941C20.1119 40.9826 21.8279 40.9826 23.2206 40.1941L35.5338 33.2233C36.9265 32.4349 37.7845 30.9777 37.7845 29.4007V15.4592C37.7845 13.8822 36.9266 12.425 35.5338 11.6366L23.2206 4.66579C21.8279 3.87731 20.1119 3.87731 18.7191 4.66579L6.40597 11.6366C5.0132 12.425 4.15522 13.8822 4.15522 15.4592V30.6644C4.15522 31.4594 4.58776 32.194 5.28991 32.5915C6.17943 33.0951 7.30299 32.95 8.02928 32.2379L23.2611 17.3022H12.2777V13.2278H24.8142C27.8741 13.2278 30.3545 15.66 30.3545 18.6603V30.9531H26.1993V20.1832L10.9675 35.1189C8.91133 37.1351 5.73053 37.5457 3.21229 36.1201C1.22452 34.9947 0 32.915 0 30.6644V15.4592C0 12.4266 1.64996 9.62432 4.32836 8.10801L16.6415 1.13723Z" fill="url(#paint0_linear_2017_4)"/>
<path fill-rule="evenodd" clip-rule="evenodd" d="M16.6415 1.13723C19.3199 -0.379076 22.6198 -0.379076 25.2982 1.13723L37.6114 8.10801C40.2898 9.62432 41.9398 12.4266 41.9398 15.4592V29.4007C41.9398 32.4333 40.2898 35.2356 37.6114 36.7519L25.2982 43.7227C22.6198 45.239 19.3199 45.239 16.6415 43.7227L12.8465 41.5742C11.8528 41.0116 11.5123 39.7657 12.086 38.7913C12.6597 37.8169 13.9304 37.4831 14.9241 38.0457L18.7191 40.1941C20.1119 40.9826 21.8279 40.9826 23.2206 40.1941L35.5338 33.2233C36.9265 32.4349 37.7845 30.9777 37.7845 29.4007V15.4592C37.7845 13.8822 36.9266 12.425 35.5338 11.6366L23.2206 4.66579C21.8279 3.87731 20.1119 3.87731 18.7191 4.66579L6.40597 11.6366C5.0132 12.425 4.15522 13.8822 4.15522 15.4592V30.6644C4.15522 31.4594 4.58776 32.194 5.28991 32.5915C6.17943 33.0951 7.30299 32.95 8.02928 32.2379L23.2611 17.3022H12.2777V13.2278H24.8142C27.8741 13.2278 30.3545 15.66 30.3545 18.6603V30.9531H26.1993V20.1832L10.9675 35.1189C8.91133 37.1351 5.73053 37.5457 3.21229 36.1201C1.22452 34.9947 0 32.915 0 30.6644V15.4592C0 12.4266 1.64996 9.62432 4.32836 8.10801L16.6415 1.13723Z" fill="url(#paint1_linear_2017_4)"/>
<path fill-rule="evenodd" clip-rule="evenodd" d="M16.6415 1.13723C19.3199 -0.379076 22.6198 -0.379076 25.2982 1.13723L37.6114 8.10801C40.2898 9.62432 41.9398 12.4266 41.9398 15.4592V29.4007C41.9398 32.4333 40.2898 35.2356 37.6114 36.7519L25.2982 43.7227C22.6198 45.239 19.3199 45.239 16.6415 43.7227L12.8465 41.5742C11.8528 41.0116 11.5123 39.7657 12.086 38.7913C12.6597 37.8169 13.9304 37.4831 14.9241 38.0457L18.7191 40.1941C20.1119 40.9826 21.8279 40.9826 23.2206 40.1941L35.5338 33.2233C36.9265 32.4349 37.7845 30.9777 37.7845 29.4007V15.4592C37.7845 13.8822 36.9266 12.425 35.5338 11.6366L23.2206 4.66579C21.8279 3.87731 20.1119 3.87731 18.7191 4.66579L6.40597 11.6366C5.0132 12.425 4.15522 13.8822 4.15522 15.4592V30.6644C4.15522 31.4594 4.58776 32.194 5.28991 32.5915C6.17943 33.0951 7.30299 32.95 8.02928 32.2379L23.2611 17.3022H12.2777V13.2278H24.8142C27.8741 13.2278 30.3545 15.66 30.3545 18.6603V30.9531H26.1993V20.1832L10.9675 35.1189C8.91133 37.1351 5.73053 37.5457 3.21229 36.1201C1.22452 34.9947 0 32.915 0 30.6644V15.4592C0 12.4266 1.64996 9.62432 4.32836 8.10801L16.6415 1.13723Z" fill="url(#paint2_linear_2017_4)"/>
</mask>
<g mask="url(#mask0_2017_4)">
<rect width="41.9398" height="44.8599" fill="url(#paint3_linear_2017_4)"/>
<path d="M5.29003 32.5916C6.17954 33.0951 7.30311 32.9501 8.0294 32.2379L23.2612 17.3022H12.2779V13.2278H24.8144C27.8742 13.2278 30.3547 15.6601 30.3547 18.6604V30.9531H26.1994V20.1833L10.9676 35.119C8.91145 37.1351 5.73065 37.5458 3.21241 36.1201L5.29003 32.5916Z" fill="url(#paint4_linear_2017_4)"/>
</g>
<path d="M82.4431 12.5244C84.9178 12.5245 86.9488 13.2623 88.5359 14.7393C90.1499 16.1901 90.9568 18.3271 90.9568 21.1495V24.1563C90.9568 26.9787 90.1499 29.1284 88.5359 30.6056C86.9488 32.0563 84.9179 32.7813 82.4431 32.7813C81.1789 32.7813 79.9144 32.3997 78.6501 31.6349C77.4127 30.8699 76.4846 29.9067 75.8659 28.7462V39.6661H72.2341V13.1573H75.8659V16.5596C76.4846 15.399 77.4127 14.4359 78.6501 13.6709C79.9144 12.9061 81.1788 12.5244 82.4431 12.5244ZM55.5885 24.3145C55.5885 26.0818 55.9652 27.3748 56.7184 28.1925C57.4985 28.9836 58.7359 29.3789 60.4303 29.379C61.2105 29.379 62.0183 29.1809 62.8522 28.7852C63.6859 28.3632 64.3851 27.6907 64.9499 26.7677C65.5417 25.8181 65.8376 24.5915 65.8376 23.088V13.1573H69.4694V32.1485H66.0798V29.0225C65.4073 30.104 64.4125 31.0018 63.0944 31.714C61.8032 32.4261 60.5247 32.7813 59.2604 32.7813C58.0231 32.7813 56.8525 32.5315 55.7497 32.0304C54.647 31.5029 53.7327 30.6585 53.0065 29.4981C52.3071 28.3111 51.9577 26.7938 51.9577 24.9473V13.1573H55.5885V24.3145ZM102.133 12.5244C104.258 12.5245 106.074 12.9988 107.58 13.9483C109.113 14.8979 110.095 16.2963 110.525 18.1426H106.49C106.275 17.4042 105.791 16.8371 105.038 16.4415C104.312 16.0194 103.208 15.8077 101.728 15.8077C100.437 15.8077 99.3887 16.0323 98.5818 16.4805C97.7749 16.9025 97.3709 17.4432 97.3709 18.1026C97.3709 18.8674 97.7205 19.4081 98.4197 19.7247C99.1191 20.0412 100.33 20.2793 102.052 20.4376C104.473 20.675 106.356 21.0438 107.701 21.545C109.046 22.0198 109.987 22.6531 110.525 23.4444C111.09 24.2092 111.373 25.1981 111.373 26.4112C111.373 28.3894 110.619 29.946 109.113 31.0802C107.607 32.2144 105.347 32.7813 102.334 32.7813C99.5631 32.7813 97.411 32.2671 95.8777 31.2384C94.3714 30.1833 93.3897 28.6667 92.9324 26.6885H96.9675C97.3979 28.4821 99.1999 29.3789 102.374 29.379C105.952 29.379 107.741 28.3768 107.741 26.3721C107.741 25.7918 107.552 25.343 107.176 25.0264C106.826 24.7101 106.18 24.46 105.239 24.2755C104.324 24.0644 102.858 23.84 100.841 23.6026C98.2048 23.2861 96.3624 22.7189 95.3132 21.9014C94.2641 21.0837 93.739 19.9225 93.739 18.419C93.7391 16.5991 94.4793 15.1615 95.9588 14.1065C97.4383 13.0515 99.4965 12.5244 102.133 12.5244ZM124 12.5244C125.964 12.5244 127.645 13.1041 129.044 14.2647C130.443 15.3989 131.263 17.0744 131.505 19.2901H127.712C127.47 18.1822 126.959 17.3508 126.179 16.7969C125.425 16.2168 124.309 15.9268 122.83 15.9268C120.732 15.9268 119.225 16.4275 118.31 17.4297C117.423 18.4321 116.979 19.8832 116.979 21.7823V23.5235C116.979 25.4226 117.423 26.8737 118.31 27.8761C119.225 28.8783 120.732 29.379 122.83 29.379C124.444 29.379 125.641 29.0491 126.421 28.3897C127.201 27.7303 127.671 26.7808 127.833 25.5411H131.586C131.424 27.9151 130.631 29.7223 129.205 30.962C127.779 32.1752 126.044 32.7813 124 32.7813H121.66C120.154 32.7813 118.768 32.4651 117.504 31.8321C116.239 31.1991 115.231 30.2359 114.477 28.9434C113.724 27.6246 113.347 26.029 113.347 24.1563V21.1495C113.347 19.2767 113.724 17.6939 114.477 16.4014C115.231 15.0826 116.239 14.1067 117.504 13.4737C118.768 12.8407 120.154 12.5244 121.66 12.5244H124ZM171.083 12.5244C172.67 12.5245 174.136 12.8406 175.481 13.4737C176.853 14.1067 177.943 15.0826 178.75 16.4014C179.584 17.6939 180 19.2768 180 21.1495V23.3253H164.143V23.5235C164.143 25.4226 164.613 26.8737 165.555 27.8761C166.523 28.8783 168.111 29.379 170.316 29.379C173.437 29.379 175.346 28.2577 176.046 26.0157H179.839C179.489 28.2314 178.534 29.9196 176.974 31.0802C175.44 32.2143 173.611 32.7813 171.486 32.7813H169.146C166.618 32.7813 164.56 32.0563 162.973 30.6056C161.412 29.1548 160.632 27.0051 160.632 24.1563V21.1495C160.632 19.2767 161.036 17.6939 161.843 16.4014C162.677 15.0826 163.766 14.1067 165.111 13.4737C166.483 12.8407 167.963 12.5244 169.55 12.5244H171.083ZM144.778 12.5244C146.769 12.5245 148.383 13.1441 149.62 14.3838C150.857 15.6236 151.476 17.6152 151.476 20.3585V27.2823C151.477 28.258 152.001 28.7461 153.05 28.7462V32.1485C151.786 32.1485 150.736 32.0304 149.902 31.7931C149.095 31.5556 148.518 30.9876 148.168 30.0909C147.549 31.0405 146.607 31.7265 145.343 32.1485C144.078 32.5441 142.72 32.7423 141.267 32.7423C139.089 32.7422 137.26 32.2543 135.78 31.2784C134.301 30.3024 133.56 28.706 133.56 26.4903V26.0557C133.56 24.2884 134.26 22.8638 135.659 21.7823C137.058 20.6745 138.927 20.1202 141.267 20.1202H147.845C147.818 19.1444 147.697 18.3664 147.481 17.7862C147.266 17.1796 146.849 16.7179 146.23 16.4014C145.639 16.085 144.765 15.9268 143.608 15.9268H141.187C140.192 15.9268 139.358 16.164 138.685 16.6387C138.04 17.0871 137.717 17.6414 137.717 18.3008H134.085C134.085 17.325 134.368 16.4017 134.932 15.5313C135.524 14.6345 136.331 13.9084 137.353 13.3545C138.403 12.8006 139.56 12.5244 140.824 12.5244H144.778ZM158.657 32.1485H155.025V3.42384H158.657V32.1485ZM81.6765 15.9268C80.762 15.9268 79.861 16.125 78.9734 16.5206C78.0856 16.9162 77.3454 17.5885 76.7536 18.5381C76.1618 19.4877 75.8659 20.7144 75.8659 22.2178V23.088C75.8659 24.5914 76.1618 25.8181 76.7536 26.7677C77.3454 27.7172 78.0856 28.3896 78.9734 28.7852C79.861 29.1808 80.762 29.379 81.6765 29.379C83.5863 29.379 84.9982 28.8646 85.9128 27.836C86.8543 26.8073 87.3259 25.3698 87.3259 23.5235V21.7823C87.3259 19.9359 86.8543 18.4985 85.9128 17.4698C84.9982 16.4412 83.5863 15.9268 81.6765 15.9268ZM142.437 23.128C140.42 23.128 139.035 23.4579 138.282 24.1173C137.556 24.7502 137.192 25.4882 137.192 26.3321C137.192 27.4399 137.582 28.2186 138.362 28.6671C139.169 29.1155 140.528 29.3399 142.437 29.3399C143.648 29.3399 144.846 29.1018 146.029 28.627C147.24 28.1522 147.845 27.3608 147.845 26.253V23.128H142.437ZM170.316 15.9268C168.272 15.9268 166.778 16.3093 165.837 17.0743C164.923 17.8128 164.385 18.9206 164.224 20.3975H176.409C176.248 18.9205 175.696 17.8128 174.755 17.0743C173.84 16.3093 172.361 15.9268 170.316 15.9268Z" fill="url(#paint5_radial_2017_4)"/>
<path d="M82.4431 12.5244C84.9178 12.5245 86.9488 13.2623 88.5359 14.7393C90.1499 16.1901 90.9568 18.3271 90.9568 21.1495V24.1563C90.9568 26.9787 90.1499 29.1284 88.5359 30.6056C86.9488 32.0563 84.9179 32.7813 82.4431 32.7813C81.1789 32.7813 79.9144 32.3997 78.6501 31.6349C77.4127 30.8699 76.4846 29.9067 75.8659 28.7462V39.6661H72.2341V13.1573H75.8659V16.5596C76.4846 15.399 77.4127 14.4359 78.6501 13.6709C79.9144 12.9061 81.1788 12.5244 82.4431 12.5244ZM55.5885 24.3145C55.5885 26.0818 55.9652 27.3748 56.7184 28.1925C57.4985 28.9836 58.7359 29.3789 60.4303 29.379C61.2105 29.379 62.0183 29.1809 62.8522 28.7852C63.6859 28.3632 64.3851 27.6907 64.9499 26.7677C65.5417 25.8181 65.8376 24.5915 65.8376 23.088V13.1573H69.4694V32.1485H66.0798V29.0225C65.4073 30.104 64.4125 31.0018 63.0944 31.714C61.8032 32.4261 60.5247 32.7813 59.2604 32.7813C58.0231 32.7813 56.8525 32.5315 55.7497 32.0304C54.647 31.5029 53.7327 30.6585 53.0065 29.4981C52.3071 28.3111 51.9577 26.7938 51.9577 24.9473V13.1573H55.5885V24.3145ZM102.133 12.5244C104.258 12.5245 106.074 12.9988 107.58 13.9483C109.113 14.8979 110.095 16.2963 110.525 18.1426H106.49C106.275 17.4042 105.791 16.8371 105.038 16.4415C104.312 16.0194 103.208 15.8077 101.728 15.8077C100.437 15.8077 99.3887 16.0323 98.5818 16.4805C97.7749 16.9025 97.3709 17.4432 97.3709 18.1026C97.3709 18.8674 97.7205 19.4081 98.4197 19.7247C99.1191 20.0412 100.33 20.2793 102.052 20.4376C104.473 20.675 106.356 21.0438 107.701 21.545C109.046 22.0198 109.987 22.6531 110.525 23.4444C111.09 24.2092 111.373 25.1981 111.373 26.4112C111.373 28.3894 110.619 29.946 109.113 31.0802C107.607 32.2144 105.347 32.7813 102.334 32.7813C99.5631 32.7813 97.411 32.2671 95.8777 31.2384C94.3714 30.1833 93.3897 28.6667 92.9324 26.6885H96.9675C97.3979 28.4821 99.1999 29.3789 102.374 29.379C105.952 29.379 107.741 28.3768 107.741 26.3721C107.741 25.7918 107.552 25.343 107.176 25.0264C106.826 24.7101 106.18 24.46 105.239 24.2755C104.324 24.0644 102.858 23.84 100.841 23.6026C98.2048 23.2861 96.3624 22.7189 95.3132 21.9014C94.2641 21.0837 93.739 19.9225 93.739 18.419C93.7391 16.5991 94.4793 15.1615 95.9588 14.1065C97.4383 13.0515 99.4965 12.5244 102.133 12.5244ZM124 12.5244C125.964 12.5244 127.645 13.1041 129.044 14.2647C130.443 15.3989 131.263 17.0744 131.505 19.2901H127.712C127.47 18.1822 126.959 17.3508 126.179 16.7969C125.425 16.2168 124.309 15.9268 122.83 15.9268C120.732 15.9268 119.225 16.4275 118.31 17.4297C117.423 18.4321 116.979 19.8832 116.979 21.7823V23.5235C116.979 25.4226 117.423 26.8737 118.31 27.8761C119.225 28.8783 120.732 29.379 122.83 29.379C124.444 29.379 125.641 29.0491 126.421 28.3897C127.201 27.7303 127.671 26.7808 127.833 25.5411H131.586C131.424 27.9151 130.631 29.7223 129.205 30.962C127.779 32.1752 126.044 32.7813 124 32.7813H121.66C120.154 32.7813 118.768 32.4651 117.504 31.8321C116.239 31.1991 115.231 30.2359 114.477 28.9434C113.724 27.6246 113.347 26.029 113.347 24.1563V21.1495C113.347 19.2767 113.724 17.6939 114.477 16.4014C115.231 15.0826 116.239 14.1067 117.504 13.4737C118.768 12.8407 120.154 12.5244 121.66 12.5244H124ZM171.083 12.5244C172.67 12.5245 174.136 12.8406 175.481 13.4737C176.853 14.1067 177.943 15.0826 178.75 16.4014C179.584 17.6939 180 19.2768 180 21.1495V23.3253H164.143V23.5235C164.143 25.4226 164.613 26.8737 165.555 27.8761C166.523 28.8783 168.111 29.379 170.316 29.379C173.437 29.379 175.346 28.2577 176.046 26.0157H179.839C179.489 28.2314 178.534 29.9196 176.974 31.0802C175.44 32.2143 173.611 32.7813 171.486 32.7813H169.146C166.618 32.7813 164.56 32.0563 162.973 30.6056C161.412 29.1548 160.632 27.0051 160.632 24.1563V21.1495C160.632 19.2767 161.036 17.6939 161.843 16.4014C162.677 15.0826 163.766 14.1067 165.111 13.4737C166.483 12.8407 167.963 12.5244 169.55 12.5244H171.083ZM144.778 12.5244C146.769 12.5245 148.383 13.1441 149.62 14.3838C150.857 15.6236 151.476 17.6152 151.476 20.3585V27.2823C151.477 28.258 152.001 28.7461 153.05 28.7462V32.1485C151.786 32.1485 150.736 32.0304 149.902 31.7931C149.095 31.5556 148.518 30.9876 148.168 30.0909C147.549 31.0405 146.607 31.7265 145.343 32.1485C144.078 32.5441 142.72 32.7423 141.267 32.7423C139.089 32.7422 137.26 32.2543 135.78 31.2784C134.301 30.3024 133.56 28.706 133.56 26.4903V26.0557C133.56 24.2884 134.26 22.8638 135.659 21.7823C137.058 20.6745 138.927 20.1202 141.267 20.1202H147.845C147.818 19.1444 147.697 18.3664 147.481 17.7862C147.266 17.1796 146.849 16.7179 146.23 16.4014C145.639 16.085 144.765 15.9268 143.608 15.9268H141.187C140.192 15.9268 139.358 16.164 138.685 16.6387C138.04 17.0871 137.717 17.6414 137.717 18.3008H134.085C134.085 17.325 134.368 16.4017 134.932 15.5313C135.524 14.6345 136.331 13.9084 137.353 13.3545C138.403 12.8006 139.56 12.5244 140.824 12.5244H144.778ZM158.657 32.1485H155.025V3.42384H158.657V32.1485ZM81.6765 15.9268C80.762 15.9268 79.861 16.125 78.9734 16.5206C78.0856 16.9162 77.3454 17.5885 76.7536 18.5381C76.1618 19.4877 75.8659 20.7144 75.8659 22.2178V23.088C75.8659 24.5914 76.1618 25.8181 76.7536 26.7677C77.3454 27.7172 78.0856 28.3896 78.9734 28.7852C79.861 29.1808 80.762 29.379 81.6765 29.379C83.5863 29.379 84.9982 28.8646 85.9128 27.836C86.8543 26.8073 87.3259 25.3698 87.3259 23.5235V21.7823C87.3259 19.9359 86.8543 18.4985 85.9128 17.4698C84.9982 16.4412 83.5863 15.9268 81.6765 15.9268ZM142.437 23.128C140.42 23.128 139.035 23.4579 138.282 24.1173C137.556 24.7502 137.192 25.4882 137.192 26.3321C137.192 27.4399 137.582 28.2186 138.362 28.6671C139.169 29.1155 140.528 29.3399 142.437 29.3399C143.648 29.3399 144.846 29.1018 146.029 28.627C147.24 28.1522 147.845 27.3608 147.845 26.253V23.128H142.437ZM170.316 15.9268C168.272 15.9268 166.778 16.3093 165.837 17.0743C164.923 17.8128 164.385 18.9206 164.224 20.3975H176.409C176.248 18.9205 175.696 17.8128 174.755 17.0743C173.84 16.3093 172.361 15.9268 170.316 15.9268Z" fill="url(#paint6_linear_2017_4)"/>
<defs>
<linearGradient id="paint0_linear_2017_4" x1="34.1569" y1="43.016" x2="15.254" y2="35.0964" gradientUnits="userSpaceOnUse">
<stop stop-color="white"/>
<stop offset="1" stop-color="white" stop-opacity="0"/>
</linearGradient>
<linearGradient id="paint1_linear_2017_4" x1="20.1947" y1="-0.760141" x2="35.6952" y2="15.1045" gradientUnits="userSpaceOnUse">
<stop offset="0.944686" stop-color="white"/>
<stop offset="1" stop-color="white" stop-opacity="0"/>
</linearGradient>
<linearGradient id="paint2_linear_2017_4" x1="25.7751" y1="30.5107" x2="17.0285" y2="39.4307" gradientUnits="userSpaceOnUse">
<stop stop-color="white"/>
<stop offset="1" stop-color="white" stop-opacity="0"/>
</linearGradient>
<linearGradient id="paint3_linear_2017_4" x1="20.9699" y1="16.7471" x2="41.5711" y2="35.6266" gradientUnits="userSpaceOnUse">
<stop stop-color="#CAEA6E"/>
<stop offset="1" stop-color="#A9FFFA"/>
</linearGradient>
<linearGradient id="paint4_linear_2017_4" x1="26.9324" y1="16.7673" x2="10.1405" y2="33.8921" gradientUnits="userSpaceOnUse">
<stop stop-color="white"/>
<stop offset="1" stop-color="white" stop-opacity="0"/>
</linearGradient>
<radialGradient id="paint5_radial_2017_4" cx="0" cy="0" r="1" gradientUnits="userSpaceOnUse" gradientTransform="translate(51.9577 12.2485) scale(163.854 45.9294)">
<stop offset="0.467164" stop-color="white"/>
<stop offset="0.866105" stop-color="white" stop-opacity="0"/>
</radialGradient>
<linearGradient id="paint6_linear_2017_4" x1="176.048" y1="-6.82458" x2="185.451" y2="42.7793" gradientUnits="userSpaceOnUse">
<stop offset="0.045" stop-color="white" stop-opacity="0"/>
<stop offset="0.387518" stop-color="white"/>
<stop offset="0.83429" stop-color="white" stop-opacity="0"/>
</linearGradient>
</defs>
</svg>
